<svg width="888" height="427" viewBox="0 0 888 427" fill="none" xmlns="http://www.w3.org/2000/svg">
<path d="M0 189.3L18.3018 60.7964L80.0173 56.4808L105.909 132.812L153.9 51.3145L222.492 46.518L204.19 175.022L161.871 177.981L173.762 92.0974L121.315 180.817L82.8752 183.505L54.7021 99.8913L42.4956 186.329L0 189.3Z" fill="white"/>
<path d="M211.596 174.504L296.022 41.3763L348.745 37.6896L393.922 161.755L351.426 164.726L343.639 142.059L274.694 146.88L260.263 171.101L211.596 174.504ZM293.065 115.65L333.797 112.801L319.54 71.0948L293.065 115.65Z" fill="white"/>
<path d="M386.63 70.1245L391.771 34.6809L542.357 24.1509L537.392 59.5822L483.082 63.3799L469.921 156.44L427.602 159.4L440.763 66.3391L386.63 70.1245Z" fill="white"/>
<path d="M623.725 149.229C566.242 153.249 532.734 125.115 539.706 77.8484C544.544 43.1348 578.445 18.6151 625.172 15.3476C670.666 12.1664 703.733 31.4716 707.954 63.9571L664.047 67.0273C660.765 55.5621 645.058 48.864 625.133 50.2573C601.504 51.9095 584.107 64.112 581.588 81.2987C578.52 103.308 595.187 116.141 622.871 114.205C642.796 112.811 657.947 103.956 661.529 91.8331L705.612 88.7506C700.877 122.394 668.866 146.073 623.725 149.229Z" fill="white"/>
<path d="M708.792 139.737L727.094 11.2328L769.413 8.27357L762.921 54.7976L838.743 49.4956L845.235 2.97158L887.731 0L869.429 128.504L827.11 131.463L833.766 84.7505L757.944 90.0525L751.288 136.765L708.792 139.737Z" fill="white"/>
<path d="M0.373284 338.638L18.675 210.134L107.369 203.932C148.278 201.071 166.98 217.66 161.839 253.104C158.21 279.759 135.187 297.671 102.39 299.964L47.3746 303.811L42.8689 335.667L0.373284 338.638ZM52.1751 268.569L99.9606 265.227C113.009 264.315 118.077 260.771 119.515 250.925C121.141 241.243 116.687 238.365 103.992 239.252L55.8535 242.618L52.1751 268.569Z" fill="white"/>
<path d="M259.708 324.047C202.754 328.03 168.766 300.638 175.283 254.467C180.399 218.671 217.602 193.212 268.208 189.673C325.339 185.678 359.15 213.082 352.621 259.077C347.681 294.861 310.315 320.509 259.708 324.047ZM217.641 259.656C214.765 279.348 231.875 290.91 259.383 288.986C286.89 287.063 307.704 273.027 310.251 253.712C313.139 234.196 296.029 222.634 268.521 224.558C241.014 226.481 220.377 240.505 217.641 259.656Z" fill="white"/>
<path d="M364.235 313.194L368.716 280.986L408.743 278.188L417.513 216.088L384.323 227.978L380.086 197.797L426.443 181.62L464.53 178.957L451.062 275.228L490.737 272.454L486.255 304.662L364.235 313.194Z" fill="white"/>
<path d="M506.978 303.213L525.28 174.709L586.467 170.43L637.555 257.403L650.298 165.967L692.794 162.995L674.492 291.499L613.305 295.778L562.459 207.193L549.474 300.241L506.978 303.213Z" fill="white"/>
<path d="M705.382 197.199L710.523 161.755L861.109 151.225L856.145 186.657L801.835 190.454L788.674 283.515L746.355 286.474L759.516 193.414L705.382 197.199Z" fill="white"/>
<path d="M176.17 401.621L177.607 391.708L219.724 388.763L218.335 398.672L203.146 399.735L199.465 425.762L187.629 426.59L191.31 400.562L176.17 401.621Z" fill="white"/>
<path d="M242.481 423.745C226.552 424.859 217.046 417.198 218.869 404.285C220.3 394.273 230.705 387.153 244.859 386.163C260.837 385.046 270.294 392.71 268.468 405.574C267.086 415.582 256.635 422.756 242.481 423.745ZM230.716 405.736C229.912 411.244 234.697 414.477 242.39 413.939C250.084 413.401 255.905 409.476 256.617 404.073C257.425 398.615 252.64 395.382 244.946 395.92C237.253 396.458 231.481 400.38 230.716 405.736Z" fill="white"/>
<path d="M292.36 420.257C277.467 421.299 269.977 414.835 271.828 402.316L274.379 384.941L286.215 384.113L283.649 401.985C282.738 408.095 285.661 410.913 292.072 410.465C298.483 410.017 302.12 406.74 302.988 400.732L305.597 382.758L317.433 381.93L314.802 400.302C312.92 413.071 305.972 419.306 292.36 420.257Z" fill="white"/>
<path d="M315.736 417.632L320.855 381.691L347.683 379.815C358.878 379.032 363.412 383.622 362.39 390.978C361.756 395.383 358.758 398.567 353.919 400.243C358.036 400.302 360.319 402.472 359.718 406.627L358.593 414.635L346.707 415.466L347.572 409.409C348.042 406.204 347.335 405.312 344.179 405.533L329.039 406.592L327.622 416.801L315.736 417.632ZM330.363 397.182L344.566 396.189C347.624 395.975 349.946 395.169 350.257 392.52C350.55 389.625 348.628 389.066 345.422 389.29L331.317 390.276L330.363 397.182Z" fill="white"/>
<path d="M362.888 414.335L368.007 378.394L385.119 377.197L399.408 401.522L402.972 375.949L414.857 375.118L409.739 411.058L392.626 412.255L378.405 387.479L374.773 413.503L362.888 414.335Z" fill="white"/>
<path d="M411.761 410.917L435.374 373.683L450.12 372.652L462.755 407.351L450.87 408.182L448.692 401.842L429.409 403.191L425.373 409.965L411.761 410.917ZM434.547 394.456L445.939 393.66L441.952 381.995L434.547 394.456Z" fill="white"/>
<path d="M464.704 407.215L469.822 371.274L487.083 370.067L494.325 391.416L507.747 368.622L526.931 367.281L521.812 403.221L509.976 404.049L513.302 380.029L498.634 404.842L487.883 405.594L480.003 382.209L476.589 406.384L464.704 407.215Z" fill="white"/>
<path d="M526.64 402.884L531.759 366.943L567.958 364.412L566.694 373.272L542.282 374.979L541.595 380.033L564.922 378.401L563.8 386.459L540.473 388.09L539.74 393.196L564.152 391.489L562.938 400.346L526.64 402.884Z" fill="white"/>
<path d="M566.279 400.112L571.397 364.172L588.51 362.975L602.799 387.3L606.363 361.727L618.248 360.895L613.13 396.836L596.017 398.033L581.796 373.257L578.164 399.281L566.279 400.112Z" fill="white"/>
<path d="M619.796 370.6L621.234 360.687L663.351 357.742L661.962 367.651L646.773 368.713L643.092 394.741L631.256 395.568L634.937 369.541L619.796 370.6Z" fill="white"/>
</svg>
